<svg width="51" height="52" viewBox="0 0 51 52" fill="none" xmlns="http://www.w3.org/2000/svg">
<path fill-rule="evenodd" clip-rule="evenodd" d="M21.5658 25.2737C21.9842 25.8351 22.2738 26.4124 22.4669 27.053C22.6761 27.7251 22.7565 28.4131 22.7002 29.1248C22.668 29.5914 22.5795 30.0501 22.2497 30.4217C22.1531 30.5325 22.0083 30.6036 21.8957 30.7143C21.8393 30.7697 21.783 30.8488 21.775 30.9199C21.7589 31.1255 21.7669 31.3311 21.7669 31.5447C21.6221 31.5447 21.4934 31.5447 21.3405 31.5447C21.3405 31.3232 21.3486 31.1097 21.3325 30.9041C21.3244 30.8329 21.2762 30.746 21.2198 30.7143C20.8819 30.5404 20.6888 30.2478 20.5682 29.8998C20.359 29.2593 20.359 28.6108 20.4475 27.9545C20.5682 27.0451 20.89 26.2226 21.3968 25.4714C21.4532 25.4002 21.5014 25.3528 21.5658 25.2737Z" fill="#272343"/>
<path fill-rule="evenodd" clip-rule="evenodd" d="M16.0546 25.2737C16.4086 25.7165 16.65 26.1831 16.8351 26.6813C17.1086 27.393 17.2293 28.1364 17.1971 28.8955C17.181 29.3779 17.1327 29.8603 16.8431 30.2715C16.7224 30.4455 16.5374 30.5641 16.3926 30.7064C16.3443 30.7618 16.288 30.833 16.2799 30.8962C16.2638 31.1097 16.2719 31.3232 16.2719 31.5447C16.1271 31.5447 15.9983 31.5447 15.8374 31.5447C15.8374 31.3232 15.8455 31.1176 15.8294 30.912C15.8213 30.8409 15.7731 30.7539 15.7167 30.7301C15.3869 30.5562 15.1938 30.2873 15.0731 29.9473C14.8318 29.2593 14.8398 28.5555 14.9524 27.8438C15.0812 27.0292 15.3627 26.2938 15.8052 25.6137C15.8857 25.4951 15.9661 25.4002 16.0546 25.2737Z" fill="#272343"/>
<path fill-rule="evenodd" clip-rule="evenodd" d="M18.8303 25.2658C19.0073 25.5505 19.2004 25.8115 19.3292 26.112C19.5222 26.5548 19.7153 27.0135 19.8199 27.4879C20.013 28.3262 20.0613 29.1723 19.7475 30.0027C19.6268 30.3111 19.4337 30.5641 19.128 30.7223C19.0797 30.746 19.0315 30.833 19.0234 30.8883C19.0154 31.1019 19.0154 31.3233 19.0154 31.5447H18.589C18.589 31.3312 18.597 31.1177 18.5809 30.9121C18.5809 30.8409 18.5327 30.746 18.4763 30.7223C18.0741 30.5246 17.881 30.1687 17.7684 29.7575C17.5753 29.03 17.6155 28.2945 17.7603 27.5591C17.9212 26.7525 18.2511 26.0171 18.7258 25.3607C18.7579 25.3291 18.7821 25.3133 18.8303 25.2658Z" fill="#272343"/>
<path fill-rule="evenodd" clip-rule="evenodd" d="M17.3821 33.1975C17.3017 33.0314 17.2293 32.8416 17.1327 32.6676C17.012 32.4462 16.8753 32.2327 16.7546 32.0034C16.7224 31.948 16.6902 31.8452 16.7144 31.8057C16.9155 31.5131 17.1327 31.2284 17.3499 30.9437C17.358 30.9358 17.3821 30.9358 17.4063 30.92C17.6798 31.1809 17.889 31.4973 18.0821 31.8294C18.1062 31.8689 18.0579 31.9638 18.0177 32.0192C17.8166 32.4146 17.5994 32.8021 17.3821 33.1975Z" fill="#272343"/>
<path fill-rule="evenodd" clip-rule="evenodd" d="M31.172 26.6497C31.0916 26.4837 31.0192 26.2939 30.9226 26.1199C30.802 25.8985 30.6652 25.685 30.5445 25.4556C30.5123 25.4003 30.4801 25.2975 30.5043 25.2579C30.7054 24.9653 30.9226 24.6807 31.1399 24.396C31.1479 24.3881 31.172 24.3802 31.1962 24.3723C31.4778 24.6332 31.6789 24.9574 31.864 25.2817C31.8881 25.3212 31.8398 25.4161 31.8076 25.4794C31.6065 25.8669 31.3893 26.2543 31.172 26.6497Z" fill="#272343"/>
<path fill-rule="evenodd" clip-rule="evenodd" d="M32.2742 28.4132C32.1937 28.2471 32.1213 28.0573 32.0248 27.8833C31.9041 27.6619 31.7673 27.4405 31.6466 27.2191C31.6145 27.1637 31.5823 27.0609 31.6145 27.0214C31.8156 26.7288 32.0328 26.4441 32.242 26.1594C32.25 26.1515 32.2742 26.1436 32.2983 26.1278C32.5799 26.3887 32.781 26.713 32.9741 27.0451C32.9983 27.0846 32.9419 27.1795 32.9098 27.2349C32.7086 27.6303 32.4914 28.0178 32.2742 28.4132Z" fill="#272343"/>
<path fill-rule="evenodd" clip-rule="evenodd" d="M33.4166 26.4599C33.3362 26.2938 33.2638 26.1041 33.1672 25.9301C33.0465 25.7087 32.9098 25.4872 32.7971 25.2658C32.7649 25.2105 32.7328 25.1077 32.7569 25.0681C32.958 24.7755 33.1753 24.4908 33.3925 24.2062C33.4005 24.1983 33.4247 24.1903 33.4488 24.1824C33.7304 24.4434 33.9315 24.7597 34.1246 25.0918C34.1488 25.1314 34.1005 25.2263 34.0683 25.2816C33.8511 25.677 33.6419 26.0724 33.4166 26.4599Z" fill="#272343"/>
<path fill-rule="evenodd" clip-rule="evenodd" d="M20.1417 33.237C20.0612 33.071 19.9888 32.8812 19.8922 32.7072C19.7716 32.4858 19.6348 32.2643 19.5141 32.0429C19.4819 31.9797 19.4497 31.8848 19.4739 31.8373C19.675 31.5447 19.8922 31.26 20.1095 30.9754C20.1175 30.9674 20.1417 30.9595 20.1658 30.9516C20.4474 31.2126 20.6485 31.5289 20.8416 31.861C20.8657 31.9006 20.8175 31.9955 20.7853 32.0587C20.5761 32.4541 20.3589 32.8416 20.1417 33.237Z" fill="#272343"/>
<path fill-rule="evenodd" clip-rule="evenodd" d="M22.8691 33.237C22.7886 33.071 22.7162 32.8812 22.6197 32.7072C22.499 32.4858 22.3622 32.2643 22.2415 32.0429C22.2093 31.9797 22.1772 31.8848 22.2013 31.8373C22.4024 31.5447 22.6197 31.26 22.8369 30.9754C22.8449 30.9674 22.8691 30.9595 22.8932 30.9516C23.1748 31.2126 23.3759 31.5289 23.569 31.861C23.5931 31.9006 23.5449 31.9955 23.5046 32.0587C23.3035 32.4541 23.0863 32.8416 22.8691 33.237Z" fill="#272343"/>
<path fill-rule="evenodd" clip-rule="evenodd" d="M25.5965 33.1658C25.516 32.9998 25.4436 32.81 25.3471 32.636C25.2264 32.4146 25.0896 32.1932 24.9689 31.9718C24.9368 31.9164 24.9046 31.8136 24.9287 31.7741C25.1379 31.4815 25.3471 31.1968 25.5643 30.9121C25.5723 30.9042 25.5965 30.9042 25.6206 30.8884C25.9022 31.1493 26.1033 31.4736 26.2964 31.7978C26.3206 31.8373 26.2642 31.9322 26.2321 31.9955C26.0229 32.383 25.8137 32.7705 25.5965 33.1658Z" fill="#272343"/>
<path fill-rule="evenodd" clip-rule="evenodd" d="M28.4284 33.0551C28.348 32.8891 28.2756 32.6993 28.179 32.5253C28.0584 32.3039 27.9216 32.0904 27.8009 31.861C27.7687 31.8057 27.7365 31.7029 27.7607 31.6633C27.9618 31.3707 28.179 31.0861 28.3963 30.8014C28.4043 30.7935 28.4284 30.7856 28.4526 30.7776C28.7342 31.0386 28.9353 31.3628 29.1203 31.695C29.1445 31.7345 29.0962 31.8294 29.064 31.8848C28.8549 32.2643 28.6457 32.6597 28.4284 33.0551Z" fill="#272343"/>
<path fill-rule="evenodd" clip-rule="evenodd" d="M26.9724 34.7079C26.8919 34.5418 26.8195 34.352 26.723 34.178C26.6023 33.9566 26.4655 33.7352 26.3449 33.5138C26.3127 33.4584 26.2805 33.3556 26.3046 33.3161C26.5058 33.0235 26.723 32.7388 26.9402 32.4541C26.9483 32.4462 26.9724 32.4383 26.9965 32.4304C27.2701 32.6914 27.4793 33.0156 27.6643 33.3477C27.6884 33.3872 27.6402 33.4821 27.608 33.5375C27.4068 33.925 27.1896 34.3125 26.9724 34.7079Z" fill="#272343"/>
<path fill-rule="evenodd" clip-rule="evenodd" d="M24.245 34.7474C24.1645 34.5814 24.0921 34.3916 23.9956 34.2176C23.8749 33.9962 23.7381 33.7747 23.6174 33.5533C23.5853 33.498 23.5531 33.3952 23.5772 33.3556C23.7783 33.063 23.9956 32.7783 24.2128 32.4937C24.2208 32.4778 24.245 32.4778 24.2691 32.4699C24.5507 32.7309 24.7518 33.0472 24.9449 33.3793C24.9691 33.4189 24.9208 33.5138 24.8806 33.5691C24.6794 33.9566 24.4622 34.3441 24.245 34.7474Z" fill="#272343"/>
<path fill-rule="evenodd" clip-rule="evenodd" d="M21.5255 34.779C21.445 34.613 21.3726 34.4232 21.2761 34.2492C21.1554 34.0278 21.0186 33.8143 20.898 33.5849C20.8658 33.5296 20.8336 33.4268 20.8577 33.3872C21.0589 33.0947 21.2761 32.81 21.4933 32.5253C21.5014 32.5174 21.5255 32.5174 21.5496 32.5016C21.8232 32.7625 22.0324 33.0788 22.2255 33.411C22.2496 33.4505 22.1933 33.5454 22.1611 33.6087C21.96 33.9962 21.7427 34.3836 21.5255 34.779Z" fill="#272343"/>
<path fill-rule="evenodd" clip-rule="evenodd" d="M18.8384 35.0005C18.7579 34.8344 18.6855 34.6446 18.589 34.4707C18.4683 34.2492 18.3315 34.0357 18.2108 33.8064C18.1786 33.7511 18.1465 33.6482 18.1706 33.6087C18.3717 33.3161 18.589 33.0314 18.8062 32.7467C18.8142 32.7309 18.8384 32.7309 18.8625 32.723C19.136 32.984 19.3452 33.3003 19.5383 33.6324C19.5624 33.672 19.5142 33.7669 19.4739 33.8301C19.2648 34.2176 19.0556 34.6051 18.8384 35.0005Z" fill="#272343"/>
<path fill-rule="evenodd" clip-rule="evenodd" d="M20.2543 36.2895C20.1739 36.1234 20.1015 35.9336 20.0049 35.7596C19.8842 35.5382 19.7475 35.3168 19.6268 35.0954C19.5946 35.04 19.5624 34.9372 19.5866 34.8977C19.7877 34.5972 20.0049 34.3204 20.2221 34.0357C20.2302 34.0199 20.2543 34.0199 20.2784 34.0041C20.56 34.2651 20.7612 34.5893 20.9543 34.9214C20.9784 34.9609 20.9301 35.0558 20.8899 35.1112C20.6807 35.5066 20.4715 35.8862 20.2543 36.2895Z" fill="#272343"/>
<path fill-rule="evenodd" clip-rule="evenodd" d="M22.9415 36.2895C22.8611 36.1234 22.7887 35.9336 22.6921 35.7596C22.5714 35.5382 22.4347 35.3168 22.322 35.0954C22.2898 35.04 22.2577 34.9372 22.2818 34.8977C22.4829 34.5972 22.7002 34.3204 22.9174 34.0357C22.9254 34.0199 22.9496 34.0199 22.9737 34.0041C23.2553 34.2651 23.4564 34.5893 23.6495 34.9214C23.6737 34.9609 23.6173 35.0558 23.5852 35.1112C23.376 35.5066 23.1588 35.8862 22.9415 36.2895Z" fill="#272343"/>
<path fill-rule="evenodd" clip-rule="evenodd" d="M25.701 36.2895C25.6206 36.1234 25.5482 35.9336 25.4516 35.7596C25.3309 35.5382 25.1942 35.3168 25.0735 35.0954C25.0413 35.04 25.0091 34.9372 25.0333 34.8977C25.2344 34.5972 25.4516 34.3204 25.6689 34.0357C25.6769 34.0199 25.701 34.0199 25.7252 34.0041C26.0068 34.2651 26.2079 34.5893 26.3929 34.9214C26.4171 34.9609 26.3688 35.0558 26.3366 35.1112C26.1355 35.5066 25.9183 35.8862 25.701 36.2895Z" fill="#272343"/>
<path fill-rule="evenodd" clip-rule="evenodd" d="M24.245 37.6496C24.1645 37.4835 24.0921 37.2937 23.9956 37.1198C23.8749 36.8983 23.7381 36.6848 23.6174 36.4555C23.5853 36.4001 23.5531 36.2973 23.5772 36.2578C23.7783 35.9652 23.9956 35.6805 24.2128 35.3958C24.2208 35.3879 24.245 35.38 24.2691 35.3721C24.5507 35.6331 24.7518 35.9573 24.9449 36.2815C24.9691 36.3211 24.9208 36.4159 24.8806 36.4713C24.6794 36.8588 24.4622 37.2542 24.245 37.6496Z" fill="#272343"/>
<path fill-rule="evenodd" clip-rule="evenodd" d="M21.6703 37.7208C21.5899 37.5547 21.5175 37.3649 21.4209 37.1909C21.3003 36.9695 21.1635 36.756 21.0428 36.5267C21.0106 36.4713 20.9784 36.3685 21.0026 36.329C21.2037 36.0364 21.4209 35.7517 21.6382 35.467C21.6462 35.4591 21.6703 35.4512 21.6945 35.4433C21.9761 35.7042 22.1772 36.0285 22.3703 36.3606C22.3944 36.4001 22.3462 36.495 22.3059 36.5504C22.1048 36.9379 21.8876 37.3254 21.6703 37.7208Z" fill="#272343"/>
<path fill-rule="evenodd" clip-rule="evenodd" d="M22.9415 38.7488C22.8611 38.5827 22.7887 38.3929 22.6921 38.219C22.5714 37.9975 22.4347 37.7761 22.322 37.5547C22.2898 37.4993 22.2577 37.3965 22.2818 37.357C22.4829 37.0644 22.7002 36.7797 22.9174 36.495C22.9254 36.4871 22.9496 36.4871 22.9737 36.4713C23.2553 36.7323 23.4564 37.0565 23.6495 37.3886C23.6737 37.4282 23.6173 37.5231 23.5852 37.5784C23.376 37.9659 23.1588 38.3534 22.9415 38.7488Z" fill="#272343"/>
<path fill-rule="evenodd" clip-rule="evenodd" d="M29.6594 25.2737C30.0778 25.8351 30.3674 26.4124 30.5605 27.053C30.7697 27.7251 30.8421 28.4131 30.7938 29.1248C30.7536 29.5914 30.6651 30.0501 30.3433 30.4217C30.2387 30.5325 30.1019 30.6115 29.9893 30.7143C29.933 30.7697 29.8767 30.8488 29.8686 30.9199C29.8525 31.1255 29.8606 31.3312 29.8606 31.5526H29.4341C29.4341 31.3312 29.4422 31.1255 29.4341 30.912C29.4261 30.8409 29.3778 30.7539 29.3215 30.7222C28.9836 30.5483 28.7905 30.2557 28.6698 29.9077C28.4607 29.2672 28.4687 28.6187 28.5492 27.9624C28.6618 27.053 28.9997 26.2305 29.4985 25.4793C29.5468 25.4002 29.5951 25.3528 29.6594 25.2737Z" fill="#272343"/>
<path fill-rule="evenodd" clip-rule="evenodd" d="M24.1484 25.2737C24.5024 25.7165 24.7437 26.1831 24.9368 26.6813C25.2023 27.393 25.331 28.1364 25.2989 28.8955C25.2828 29.3779 25.2264 29.8603 24.9449 30.2715C24.8242 30.4455 24.6391 30.5641 24.4943 30.7064C24.446 30.7539 24.3897 30.825 24.3817 30.8962C24.3656 31.1018 24.3736 31.3153 24.3736 31.5447C24.2369 31.5447 24.1001 31.5447 23.9472 31.5447C23.9472 31.3232 23.9553 31.1176 23.9392 30.912C23.9392 30.8409 23.8829 30.7539 23.8265 30.7301C23.4967 30.5641 23.3036 30.2873 23.1829 29.9473C22.9416 29.2593 22.9496 28.5634 23.0622 27.8438C23.191 27.0371 23.4725 26.2938 23.907 25.6137C23.9794 25.4951 24.0599 25.4002 24.1484 25.2737Z" fill="#272343"/>
<path fill-rule="evenodd" clip-rule="evenodd" d="M26.924 25.2658C27.101 25.5505 27.2941 25.8115 27.4228 26.112C27.6159 26.5548 27.809 27.0135 27.9136 27.4879C28.1066 28.3262 28.1549 29.1723 27.8411 30.0027C27.7205 30.319 27.5274 30.5641 27.2217 30.7223C27.1734 30.746 27.1251 30.833 27.1171 30.8883C27.101 31.1019 27.109 31.3233 27.109 31.5447H26.6826C26.6826 31.3312 26.6907 31.1177 26.6746 30.9121C26.6665 30.8409 26.6263 30.746 26.57 30.7223C26.1677 30.5246 25.9746 30.1687 25.862 29.7575C25.6689 29.03 25.7091 28.2945 25.8539 27.567C26.0148 26.7604 26.3447 26.025 26.8194 25.3607C26.8435 25.337 26.8677 25.3212 26.924 25.2658Z" fill="#272343"/>
<path d="M4.85551 21.9761C5.04056 21.9287 5.06469 22.0078 5.02446 22.158C4.97619 22.3557 4.92792 22.5534 4.90379 22.7353C4.79115 23.6447 4.98424 24.3169 5.64396 24.6253C6.13473 24.8546 6.76227 24.8625 7.47026 24.6806C7.69554 24.6253 7.73576 24.6806 7.6714 24.9021C7.60704 25.1235 7.59899 25.337 7.57486 25.5426C7.5105 26.0645 7.63117 26.4678 7.7599 26.8711C7.75185 26.879 7.97713 27.1795 8.17826 27.2586C8.68512 27.4801 9.34484 27.5908 9.98848 27.4168C10.3747 27.314 10.4471 27.3219 10.2942 27.7331C9.81148 29.0221 10.6321 29.8445 10.8332 29.979C11.4366 30.3111 12.0722 30.2715 12.8929 30.0501C13.0859 30.0027 13.0296 30.1292 13.0135 30.232C12.9572 30.4851 12.925 30.7302 12.8929 30.9674C12.8365 31.4815 12.917 32.462 13.8422 32.7704C14.1721 32.9207 14.5985 32.897 15.049 32.8416C15.2582 32.81 15.5559 32.6756 15.6605 32.7546C15.7812 32.8416 15.6202 33.1658 15.58 33.3873C15.3387 34.8423 16.1352 35.3801 16.1432 35.3563C16.7144 35.6252 17.4144 35.6489 18.243 35.4354C18.4603 35.3801 18.3476 35.554 18.3235 35.641C18.2028 36.1392 18.1948 36.5821 18.235 37.0012C18.2189 37.0803 18.5568 37.9027 18.8947 38.0767C19.4016 38.3376 20.0291 38.3534 20.7854 38.132C21.0107 38.0688 21.0509 38.132 20.9865 38.3455C20.9061 38.5828 20.89 38.7963 20.8658 39.0177C20.8015 39.5634 20.9543 39.9587 21.0911 40.3621C21.0911 40.3621 21.1555 40.449 21.244 40.536L20.8658 40.9235C20.5118 40.5597 20.359 40.0062 20.3992 39.2549C20.4073 39.0572 20.5199 38.7647 20.4314 38.6777C20.3429 38.5907 20.0452 38.7251 19.8602 38.733C19.3372 38.7647 18.6936 38.5511 18.5246 38.4483C18.1304 38.2823 17.9373 37.9264 17.8086 37.5152C17.6799 37.104 17.696 36.6058 17.7845 36.076C17.7845 36.0285 17.8247 35.9494 17.7442 35.9652C17.6557 35.9811 17.5592 36.0048 17.4707 36.0127C16.5696 36.1709 15.9099 35.8783 15.6766 35.6648C15.1134 35.1586 14.9444 34.4548 15.1053 33.4743C15.1134 33.3873 15.1697 33.2528 15.0249 33.2924C14.9525 33.3003 14.8801 33.3161 14.8077 33.324C14.1399 33.4031 13.5445 33.3794 13.1423 33.0393C12.9814 32.9128 12.1929 32.2802 12.4343 30.8805C12.4665 30.6274 12.394 30.58 12.1688 30.6195C11.4125 30.7539 10.8091 30.6432 10.3666 30.2953C9.78734 29.8445 9.61034 29.1012 9.78734 28.1206C9.81952 27.9308 9.7793 27.8675 9.58621 27.915C9.30462 27.9782 9.03107 28.0099 8.79776 27.9703C8.7173 27.9624 7.71163 27.9308 7.31741 27.2191C6.99559 26.5785 7.00363 26.0883 7.13236 25.3607C7.1565 25.2263 7.14041 25.1947 6.99559 25.2263C6.69791 25.2896 6.40827 25.3133 6.15082 25.2975C6.06232 25.2975 3.8257 25.3054 4.46129 22.6958C4.48542 22.5534 4.48542 22.4901 4.30842 22.5297C3.84984 22.6246 3.42343 22.6325 3.05334 22.5376L3.3993 22.0789C3.85788 22.158 4.34061 22.1185 4.85551 21.9761Z" fill="#272343"/>
<path d="M3.31877 23.5419C3.50381 23.4945 3.52795 23.5656 3.48772 23.7238C3.43945 23.9215 3.39117 24.1192 3.36704 24.3011C3.2544 25.2105 3.44749 25.8826 4.10721 26.1911C4.59798 26.4204 5.22552 26.4283 5.94156 26.2464C6.16683 26.1911 6.19901 26.2464 6.1427 26.4678C6.07833 26.6893 6.06224 26.9028 6.03811 27.1084C5.97374 27.6303 6.09442 28.0336 6.2312 28.4369C6.22315 28.4448 6.44842 28.7453 6.64956 28.8244C7.15642 29.0458 7.81614 29.1565 8.45977 28.9826C8.84595 28.8797 8.91836 28.8877 8.77354 29.2989C8.29886 30.58 9.11145 31.4103 9.30454 31.5447C9.90794 31.8769 10.5516 31.8373 11.3642 31.6159C11.5573 31.5684 11.509 31.695 11.4848 31.7978C11.4285 32.0508 11.3963 32.296 11.3642 32.5332C11.3078 33.0472 11.3883 34.0278 12.3135 34.3362C12.6434 34.4865 13.0698 34.4627 13.5203 34.4074C13.7295 34.3758 14.0272 34.2413 14.1318 34.3204C14.2525 34.4074 14.0915 34.7316 14.0513 34.953C13.81 36.4081 14.6065 36.9458 14.6145 36.9221C15.1857 37.191 15.8857 37.2147 16.7143 37.0012C16.9316 36.9458 16.8189 37.1277 16.7948 37.2068C16.6822 37.705 16.6661 38.1478 16.7143 38.567C16.6983 38.646 17.0281 39.4685 17.3821 39.6424C17.889 39.9034 18.5165 39.9192 19.2728 39.6978C19.498 39.6345 19.5383 39.6978 19.4739 39.9113C19.3935 40.1485 19.3774 40.3621 19.3532 40.5835C19.2889 41.1291 19.4417 41.5245 19.5785 41.9278C19.5785 41.9357 19.6429 42.0148 19.7314 42.1097L19.3532 42.4893C18.9992 42.1255 18.8464 41.572 18.8866 40.8207C18.8946 40.6309 19.0073 40.3304 18.9188 40.2513C18.8303 40.1644 18.5326 40.2988 18.3476 40.3067C17.8246 40.3383 17.181 40.1248 17.012 40.022C16.6178 39.8559 16.4247 39.5001 16.296 39.0889C16.1673 38.6777 16.1834 38.1795 16.2718 37.6417C16.2718 37.5943 16.3121 37.5152 16.2316 37.531C16.1431 37.5468 16.0546 37.5706 15.9581 37.5864C15.057 37.7445 14.4053 37.4519 14.172 37.2384C13.6088 36.7244 13.4318 36.0206 13.6008 35.0479C13.6088 34.9609 13.6651 34.8265 13.5203 34.8581C13.4479 34.866 13.3755 34.8819 13.3031 34.8898C12.6353 34.9689 12.04 34.9451 11.6377 34.6051C11.4768 34.4786 10.6883 33.8459 10.9297 32.4462C10.9699 32.1932 10.8895 32.1457 10.6642 32.1932C9.90794 32.3276 9.30454 32.2169 8.86204 31.8689C8.28277 31.4182 8.10577 30.6748 8.28277 29.6864C8.31496 29.4966 8.27473 29.4333 8.08164 29.4808C7.80005 29.544 7.5265 29.5756 7.29319 29.5282C7.21273 29.5203 6.20706 29.4887 5.81284 28.7769C5.49102 28.1364 5.49906 27.6461 5.62779 26.9186C5.65193 26.7842 5.63584 26.7525 5.49102 26.7841C5.19334 26.8474 4.9037 26.8711 4.64625 26.8553C4.55775 26.8474 2.32113 26.8553 2.95672 24.2457C2.98086 24.1034 2.98086 24.0401 2.80386 24.0796C2.34527 24.1745 1.92691 24.1824 1.55682 24.0875L1.90278 23.6289C2.32114 23.7159 2.79582 23.6763 3.31877 23.5419Z" fill="#272343"/>
<path d="M1.79831 25.076C1.98335 25.0285 2.00749 25.0997 1.96726 25.2579C1.92704 25.4556 1.87876 25.6533 1.84658 25.8352C1.73394 26.7446 1.92703 27.4167 2.58675 27.7172C3.07752 27.9466 3.70506 27.9545 4.4211 27.7805C4.64637 27.7251 4.6866 27.7805 4.62224 28.0019C4.55787 28.2233 4.54983 28.4369 4.5257 28.6425C4.46133 29.1644 4.58201 29.5756 4.71878 29.971C4.71074 29.9789 4.92796 30.2794 5.13714 30.3585C5.644 30.5799 6.29568 30.6906 6.94736 30.5166C7.33353 30.4138 7.40595 30.4217 7.25308 30.833C6.77036 32.1219 7.59099 32.9444 7.78408 33.0788C8.38748 33.4109 9.03111 33.3714 9.85174 33.15C10.0448 33.0946 9.98851 33.2291 9.96438 33.3319C9.90806 33.5849 9.87588 33.8301 9.85174 34.0673C9.79542 34.5813 9.87588 35.5619 10.8011 35.8703C11.131 36.0206 11.5574 35.9968 11.9999 35.9336C12.209 35.9098 12.5067 35.7675 12.6113 35.8466C12.732 35.9336 12.5711 36.2578 12.5309 36.4792C12.2895 37.9343 13.086 38.472 13.094 38.4483C13.6653 38.7172 14.3652 38.7409 15.1939 38.5274C15.4111 38.472 15.2985 38.6539 15.2743 38.7409C15.1537 39.2391 15.1456 39.6819 15.1858 40.101C15.1697 40.1801 15.5077 41.0025 15.8536 41.1844C16.3605 41.4375 16.988 41.4612 17.7443 41.2319C17.9695 41.1686 18.0098 41.2319 17.9454 41.4454C17.865 41.6826 17.8489 41.8961 17.8247 42.1176C17.7604 42.6553 17.9052 43.0586 18.05 43.4619C18.042 43.4619 18.1144 43.5489 18.1948 43.6359L17.8167 44.0155C17.4627 43.6517 17.3098 43.0981 17.35 42.3469C17.3581 42.1492 17.4788 41.8566 17.3822 41.7696C17.2937 41.6826 17.0041 41.8171 16.811 41.825C16.2881 41.8566 15.6444 41.6431 15.4755 41.5403C15.0813 41.3742 14.8882 41.0184 14.7594 40.6072C14.6307 40.1959 14.6468 39.6977 14.7433 39.16C14.7433 39.1126 14.7836 39.0335 14.7031 39.0493C14.6146 39.0651 14.5181 39.0888 14.4296 39.0967C13.5365 39.2549 12.8768 38.9623 12.6435 38.7488C12.0803 38.2427 11.9114 37.5389 12.0723 36.5583C12.0803 36.4713 12.1366 36.3369 11.9918 36.3764L11.7746 36.408C11.1068 36.4871 10.5115 36.4555 10.1092 36.1234C9.94829 35.9968 9.15984 35.3642 9.4012 33.9645C9.43338 33.7114 9.36097 33.664 9.1357 33.7035C8.37944 33.838 7.77603 33.7273 7.33354 33.3793C6.75427 32.9286 6.57727 32.1852 6.75427 31.2046C6.78645 31.0069 6.74622 30.9516 6.55313 30.999C6.27154 31.0623 5.998 31.0939 5.76469 31.0465C5.68423 31.0386 4.67856 31.0069 4.28433 30.2952C3.96252 29.6468 3.97057 29.1644 4.09929 28.4369C4.12343 28.3024 4.10733 28.2708 3.96252 28.3024C3.66484 28.3657 3.38325 28.3894 3.11775 28.3736C3.02925 28.3657 0.792631 28.3736 1.42822 25.764C1.45235 25.6216 1.45236 25.5584 1.27536 25.5979C0.816771 25.6928 0.390363 25.7007 0.0283203 25.6137L0.374272 25.1551C0.792633 25.2579 1.27536 25.2183 1.79831 25.076Z" fill="#272343"/>
<path fill-rule="evenodd" clip-rule="evenodd" d="M26.7712 19.4298C26.7551 19.3507 26.7149 19.2953 26.6264 19.2795C26.6183 19.2795 26.6103 19.2795 26.6022 19.2716C26.0149 19.2637 25.4195 19.2716 24.8322 19.2716C24.7276 19.2716 24.6231 19.2795 24.5185 19.2637C24.4461 19.2321 24.4461 19.1688 24.438 19.1055C24.43 19.0581 24.438 19.0027 24.4139 18.9632C24.3736 18.8762 24.3978 18.8367 24.4702 18.805C24.5185 18.7892 24.5587 18.7734 24.607 18.7497C24.9046 18.6231 25.2104 18.5045 25.508 18.3701C25.6368 18.3147 25.685 18.204 25.6368 18.1012C25.5885 17.9984 25.492 17.9668 25.3552 18.0221C25.0736 18.1408 24.8001 18.2515 24.5185 18.3701C24.253 18.4887 24.253 18.4887 24.0921 18.2436C24.084 18.2357 24.076 18.2198 24.0679 18.2119C24.0036 18.1566 24.0196 18.117 24.076 18.0617C24.3495 17.7928 24.6231 17.516 24.8885 17.2393C25.0897 17.0337 25.2989 16.828 25.5 16.6224C25.6046 16.5117 25.5965 16.3694 25.4759 16.2982C25.3552 16.227 25.2667 16.3061 25.1862 16.3852C24.7679 16.8043 24.3495 17.2313 23.9311 17.6505C23.8668 17.7137 23.8185 17.8086 23.7461 17.8244C23.6656 17.8482 23.6013 17.7375 23.5289 17.6979C23.5128 17.69 23.4967 17.6821 23.4726 17.6742C23.4001 17.6426 23.3841 17.603 23.4243 17.516C23.5691 17.176 23.7059 16.836 23.8426 16.4959C23.907 16.3298 23.8829 16.2587 23.7461 16.2033C23.6335 16.1559 23.545 16.2112 23.4887 16.3536C23.3438 16.7173 23.199 17.0811 23.0462 17.4449C22.9818 17.4844 22.9255 17.437 22.8692 17.4211C22.837 17.4211 22.8128 17.4132 22.7887 17.4132C22.7324 17.3895 22.6519 17.429 22.6358 17.3342C22.6197 17.2867 22.6278 17.2313 22.6278 17.1839C22.6278 16.5196 22.6278 15.8633 22.6278 15.2069C22.6278 15.1911 22.6278 15.1753 22.6197 15.1595C22.483 14.9855 22.4025 14.9855 22.2657 15.1595C22.2577 15.1753 22.2577 15.199 22.2577 15.2148C22.2577 15.8554 22.2577 16.4959 22.2577 17.1365C22.2577 17.1997 22.2657 17.263 22.2416 17.3262C22.2094 17.3895 22.1531 17.4132 22.0887 17.4132C22.0566 17.4211 22.0324 17.4211 22.0003 17.4211C21.9439 17.4449 21.8876 17.4844 21.8233 17.4449C21.6784 17.0811 21.5336 16.7173 21.3808 16.3536C21.3244 16.2191 21.2118 16.148 21.1072 16.1875C21.0026 16.227 20.9704 16.3378 21.0268 16.488C21.1394 16.7648 21.244 17.0495 21.3647 17.3262C21.4853 17.603 21.4853 17.603 21.2359 17.7691C21.2359 17.7691 21.2279 17.7691 21.2279 17.777C21.1635 17.8719 21.1153 17.8403 21.0509 17.7691C20.6969 17.4053 20.3429 17.0495 19.9889 16.6857C19.8682 16.5671 19.7556 16.4406 19.6269 16.3298C19.5303 16.2349 19.4016 16.2508 19.3292 16.3615C19.2487 16.4801 19.3211 16.575 19.4016 16.6541C19.8199 17.0732 20.2383 17.5002 20.6567 17.9193C20.721 17.9826 20.8176 18.0459 20.8417 18.117C20.8578 18.1961 20.7532 18.2594 20.7049 18.3385C20.6969 18.3543 20.6888 18.378 20.6808 18.3938C20.6486 18.4729 20.6004 18.4729 20.5279 18.4413C20.1981 18.2989 19.8521 18.1566 19.5223 18.0221C19.3775 17.9668 19.2729 17.9984 19.2246 18.1012C19.1844 18.2119 19.2487 18.3226 19.3935 18.378C19.7475 18.5203 20.1096 18.6785 20.4636 18.8288C20.5038 18.892 20.4636 18.9474 20.4394 19.0027C20.4394 19.0264 20.4314 19.0581 20.4314 19.0897C20.4234 19.1609 20.4073 19.2162 20.3429 19.2479C20.2785 19.2716 20.2222 19.2637 20.1579 19.2637H18.2511C18.235 19.2637 18.2109 19.2637 18.1948 19.2716C18.0339 19.4139 18.0339 19.4851 18.1948 19.6274H18.2189C18.3315 19.6433 18.4522 19.6354 18.5649 19.6354C19.1602 19.6433 19.7636 19.6274 20.359 19.6433C20.4073 19.6828 20.4153 19.7461 20.4234 19.8014C20.4314 19.8251 20.4314 19.8568 20.4314 19.8884C20.4475 19.9438 20.4958 19.9991 20.4555 20.0703C20.3107 20.1256 20.1659 20.1889 20.0211 20.2522C19.7958 20.3471 19.5786 20.4341 19.3614 20.5369C19.2326 20.5922 19.1763 20.695 19.2165 20.8057C19.2568 20.9085 19.3694 20.9402 19.4981 20.8927C19.7717 20.782 20.0452 20.6634 20.3188 20.5527C20.4153 20.5131 20.5119 20.4341 20.6004 20.4499C20.7049 20.4578 20.713 20.608 20.7854 20.6871C20.7934 20.6871 20.7934 20.695 20.7934 20.695C20.89 20.7583 20.8337 20.8057 20.7854 20.8611C20.5682 21.0825 20.3509 21.3039 20.1337 21.5174C19.8843 21.7705 19.6269 22.0236 19.3775 22.2845C19.2648 22.4031 19.2729 22.5217 19.3855 22.6008C19.5062 22.6799 19.5947 22.6087 19.6751 22.5297C20.0935 22.1026 20.5199 21.6756 20.9383 21.2565C21.0026 21.1932 21.0509 21.0983 21.1233 21.0746C21.2038 21.0588 21.2681 21.1616 21.3405 21.209C21.3647 21.2169 21.3808 21.2407 21.4049 21.2407C21.4773 21.2644 21.4773 21.3118 21.4451 21.3751C21.3566 21.5649 21.2842 21.7626 21.2038 21.9524C21.1796 21.9998 21.1555 22.0552 21.1313 22.1026C21.1233 22.2212 21.0509 22.3082 21.0187 22.411C20.9785 22.5297 20.9704 22.6246 21.0992 22.6878C21.2118 22.7432 21.3083 22.7036 21.3727 22.5613C21.5014 22.2529 21.6221 21.9366 21.7508 21.6202C21.7991 21.5016 21.8393 21.3751 22.0083 21.47C22.0324 21.4779 22.0646 21.4779 22.0968 21.4779C22.137 21.4937 22.1692 21.5095 22.2094 21.5333C22.2255 21.5412 22.2416 21.557 22.2497 21.5807C22.2577 21.6519 22.2577 21.7151 22.2577 21.7784C22.2577 22.411 22.2497 23.0437 22.2577 23.6763C22.2577 23.6842 22.2577 23.6921 22.2577 23.7C22.2818 23.7949 22.3382 23.8503 22.4347 23.8503C22.5312 23.8503 22.5876 23.7949 22.6117 23.7C22.6117 23.6921 22.6197 23.6842 22.6197 23.6763C22.6278 23.3758 22.6197 23.0832 22.6197 22.7827C22.6197 22.3794 22.6117 21.9761 22.6278 21.5728C22.6439 21.5412 22.668 21.5016 22.7002 21.4858C22.7807 21.47 22.8692 21.47 22.9416 21.4463C23.022 21.4146 23.0462 21.4463 23.0703 21.5016L23.2151 21.8575C23.3116 22.0947 23.4001 22.332 23.5047 22.5692C23.5611 22.6957 23.6737 22.7511 23.7702 22.6957C23.8748 22.6325 23.907 22.5455 23.8507 22.4189C23.7381 22.1422 23.6254 21.8654 23.5128 21.5886C23.4726 21.4937 23.4002 21.3988 23.4082 21.3039C23.4162 21.1932 23.5691 21.1853 23.6415 21.1141C23.6496 21.1062 23.6576 21.1062 23.6657 21.0904C23.722 21.0192 23.7542 21.043 23.8105 21.0983C24.0518 21.3514 24.3012 21.5886 24.5426 21.8417C24.7759 22.071 25.0012 22.3082 25.2345 22.5376C25.3391 22.6404 25.4437 22.6404 25.5322 22.5376C25.6368 22.411 25.5563 22.3161 25.4759 22.2371C25.0655 21.81 24.6472 21.3988 24.2369 20.9797C24.1725 20.9085 24.0679 20.8532 24.0438 20.7662C24.0116 20.6792 24.1323 20.6159 24.1806 20.5369C24.1886 20.521 24.1886 20.5131 24.1966 20.4973C24.2288 20.4261 24.261 20.4024 24.3495 20.442C24.6874 20.5922 25.0334 20.7267 25.3713 20.869C25.508 20.9243 25.6046 20.8927 25.6529 20.7899C25.7011 20.6871 25.6448 20.5685 25.508 20.5131C25.2023 20.3866 24.8966 20.2601 24.5909 20.1336C24.4782 20.0861 24.3495 20.0466 24.438 19.8726C24.4541 19.8489 24.446 19.8172 24.446 19.7856C24.4541 19.7303 24.4541 19.667 24.5104 19.6274C25.0816 19.6116 25.6448 19.6275 26.216 19.6195C26.3689 19.6195 26.5218 19.6274 26.6746 19.6037C26.747 19.5958 26.7873 19.5246 26.7712 19.4298Z" fill="#272343"/>
<path d="M25.4838 0L19.9003 5.6937L5.55536 20.1968L9.12751 23.8187L9.1436 23.8028L12.5468 27.2507L14.2766 25.4951L10.8734 22.0552L22.1771 10.6282L37.045 25.6849L18.6372 44.4425L25.5482 51.4094L50.9716 25.764L25.4838 0Z" fill="#272343"/>
</svg>
